<svg xmlns="http://www.w3.org/2000/svg" viewBox="0 0 259.18 180.59"><defs><style>.cls-1{fill:none;}.cls-2{fill:#fff;}.cls-3{fill:#ce202f;}</style></defs><title>Asset 73</title><g id="Layer_2" data-name="Layer 2"><g id="Layer_1-2" data-name="Layer 1"><path class="cls-1" d="M129.83,76.14V65.66q0-4.86-4-4.86h-5.33V81h4.21Q129.84,81,129.83,76.14Z"/><path class="cls-1" d="M53,133.13a.5.5,0,0,0-.56,0,2.68,2.68,0,0,0-.44.28l-1.24.93c-.26.19-.41.34-.43.42s0,.25.17.46l.16.22c.75,1.13,1.58,1.36,2.51.67a1.55,1.55,0,0,0,.24-2.46A2.77,2.77,0,0,0,53,133.13Z"/><path class="cls-1" d="M59.39,145.88A5.87,5.87,0,0,0,57.92,148a1.84,1.84,0,0,0,.56,2q1.6,1.53,4.06-1a5.94,5.94,0,0,0,1.59-2.42,1.78,1.78,0,0,0-.6-1.8Q61.93,143.26,59.39,145.88Z"/><path class="cls-1" d="M116.78,128.15h-1.36v11h1.46c.51,0,.77-.22.77-.65v-9.32C117.65,128.5,117.36,128.15,116.78,128.15Z"/><path class="cls-1" d="M81.85,17.26c.12.21.24.31.36.32a.93.93,0,0,0,.42-.17l.48-.28a2.83,2.83,0,0,0,1.11-1.05,1,1,0,0,0,0-1.07c-.4-.7-1.15-.74-2.22-.1a2.59,2.59,0,0,0-.75.56.78.78,0,0,0,.06.87Z"/><path class="cls-1" d="M93.9,129a.75.75,0,0,0-.85-.85h-.53a.75.75,0,0,0-.85.85v4.85H93.9Z"/><path class="cls-1" d="M83.75,19.21c-.23.14-.36.26-.39.37a.58.58,0,0,0,.11.44l.67,1.14a1,1,0,0,0,.82.61,2.79,2.79,0,0,0,1.37-.5,2,2,0,0,0,.91-1,1.27,1.27,0,0,0-.1-1.15A1.36,1.36,0,0,0,86,18.44a3,3,0,0,0-1.74.5Z"/><path class="cls-1" d="M148,128.15a.75.75,0,0,0-.85.85v9.32a.77.77,0,0,0,.87.86h1c.51,0,.77-.29.77-.86V129c0-.57-.29-.85-.88-.85Z"/><path class="cls-1" d="M177.79,129a.75.75,0,0,0-.85-.85h-.53a.75.75,0,0,0-.85.85v4.85h2.23Z"/><path class="cls-1" d="M211.47,61.37c-.1-.25-.2-.39-.31-.44a.58.58,0,0,0-.45,0l-1.21.51a1.06,1.06,0,0,0-.72.73,2.76,2.76,0,0,0,.31,1.43,2,2,0,0,0,.86,1,1.29,1.29,0,0,0,1.15.06,1.39,1.39,0,0,0,.85-1.08,3.18,3.18,0,0,0-.27-1.8Z"/><path class="cls-1" d="M76.33,155.24a2.89,2.89,0,0,0-.79-.43.73.73,0,0,0-.73.41l-.59.86c-.14.22-.21.39-.18.5a.76.76,0,0,0,.34.38c1.24.83,2.1.88,2.6.14S77.2,155.83,76.33,155.24Z"/><path class="cls-1" d="M113.72,169.51a.68.68,0,0,0-.46-.28.58.58,0,0,0-.75.56,1.87,1.87,0,0,0,.31,1.17,1.09,1.09,0,0,0,1-.91A.77.77,0,0,0,113.72,169.51Z"/><path class="cls-1" d="M213.3,60.06a.91.91,0,0,0,.11.44l.22.51a2.7,2.7,0,0,0,.88,1.24,1.06,1.06,0,0,0,1.07.15c.74-.31.88-1,.4-2.19a2.73,2.73,0,0,0-.46-.82.76.76,0,0,0-.87,0l-1,.41C213.44,59.84,213.32,59.94,213.3,60.06Z"/><path class="cls-1" d="M97.59,14.68a2,2,0,0,0,2.13.4c1.46-.53,1.76-1.95.92-4.28a6,6,0,0,0-1.53-2.61,1.86,1.86,0,0,0-2-.27q-2.2.8-.9,4.38A6.15,6.15,0,0,0,97.59,14.68Z"/><path class="cls-1" d="M109.91,174.39a1.57,1.57,0,0,0-.44.93,1.4,1.4,0,0,0,.28,1.13,1.65,1.65,0,0,0,1.09.59,1.88,1.88,0,0,0,.9,0,3.48,3.48,0,0,0,.91-.59l-1.38-2.81A6,6,0,0,0,109.91,174.39Z"/><path class="cls-2" d="M38.36,66.5a6.4,6.4,0,0,0,.69.22c.43.12.71.2.85.26a6.51,6.51,0,0,1,.78.36,5.69,5.69,0,0,0,.76.38,1.58,1.58,0,0,0,1.14.07,1.23,1.23,0,0,0,.74-.77c.34-.83,0-1.45-1-1.84A2.78,2.78,0,0,0,41.8,65a4.13,4.13,0,0,1-.53-.14c-.38-.15-.46-.5-.25-1s.7-.67,1.45-.37l4.81,1.91c.69.28,1,.6.81,1a3.3,3.3,0,0,1-.27.52c-.13.23-.23.4-.28.52a1,1,0,0,0,.7,1.46A1.18,1.18,0,0,0,50,68.09c.13-.33.26-.73.39-1.18.2-.68.39-1.27.59-1.76s.45-1,.78-1.68a10.46,10.46,0,0,0,.52-1.13,1.22,1.22,0,0,0-.82-1.78,1,1,0,0,0-1.4.61,4.22,4.22,0,0,0-.16.56,3.16,3.16,0,0,1-.15.57c-.15.38-.57.43-1.27.16l-4.81-1.92a1.55,1.55,0,0,1-.79-.54,1,1,0,0,1,0-.79c.2-.49.5-.65.9-.49a2.82,2.82,0,0,1,.48.25,4.13,4.13,0,0,0,.51.26c1,.38,1.61.15,1.94-.68a1.26,1.26,0,0,0,0-1.06,1.49,1.49,0,0,0-.86-.74L45,56.5c-.37-.11-.64-.2-.82-.27a7.85,7.85,0,0,1-.72-.36l-.72-.35a.71.71,0,0,0-1,.46c-.1.25-.21.58-.33,1-.28.93-.74,2.21-1.39,3.83s-1.18,2.86-1.61,3.72c-.19.38-.34.7-.44,1A.7.7,0,0,0,38.36,66.5Z"/><path class="cls-2" d="M45.38,51.16a1.31,1.31,0,0,0,.87.23.86.86,0,0,0,.66-.4,2.55,2.55,0,0,0,.19-.4,1.91,1.91,0,0,1,.17-.39c.18-.28.6-.2,1.28.24l4.19,2.69c.69.44.94.8.77,1.07a2.16,2.16,0,0,1-.28.32,1.69,1.69,0,0,0-.28.32.88.88,0,0,0-.09.78,1.26,1.26,0,0,0,.56.7,1.33,1.33,0,0,0,1,.22,1.21,1.21,0,0,0,.8-.58,9.84,9.84,0,0,0,.55-1.08,11.65,11.65,0,0,1,.66-1.18,7.38,7.38,0,0,1,.63-.78,9.2,9.2,0,0,0,.61-.77,1.09,1.09,0,0,0,.15-.92,1.39,1.39,0,0,0-.63-.8c-.62-.4-1.07-.37-1.35.07l-.09.14-.06.09,0,.07c-.11.18-.29.21-.51.1l-.53-.34-1.49-1,2-3.18,1.49,1c.23.15.4.26.5.34s.25.34.15.5l0,.08-.07.1-.09.14c-.28.44-.12.86.5,1.26a1.41,1.41,0,0,0,1,.24,1.14,1.14,0,0,0,.77-.52,7.82,7.82,0,0,0,.46-1,7.24,7.24,0,0,1,.58-1,8.71,8.71,0,0,1,.67-.87c.3-.37.52-.66.65-.86l.06-.05,0-.06a1.26,1.26,0,0,0,.19-1,1.37,1.37,0,0,0-.62-.82,1.26,1.26,0,0,0-.87-.21.89.89,0,0,0-.67.4,3.35,3.35,0,0,0-.18.4,1.39,1.39,0,0,1-.18.4c-.17.27-.6.19-1.29-.25L54,42a6.64,6.64,0,0,1-.62-.44.49.49,0,0,1-.12-.64,1.69,1.69,0,0,1,.28-.32,2.4,2.4,0,0,0,.29-.34.84.84,0,0,0,.09-.76,1.49,1.49,0,0,0-1.56-.92,1.18,1.18,0,0,0-.81.58L51,40.19c-.21.42-.4.76-.57,1a8.62,8.62,0,0,1-.67.85,8.41,8.41,0,0,0-.66.86,1.1,1.1,0,0,0-.17.92,1.3,1.3,0,0,0,.61.79c.61.4,1.06.37,1.35-.07l.08-.14.12-.18c.11-.16.27-.19.51-.08a5.09,5.09,0,0,1,.52.31l1.07.69-2,3.18-1.07-.69-.51-.33c-.2-.17-.24-.34-.13-.51l.11-.17.08-.13c.29-.45.13-.86-.47-1.25a1.4,1.4,0,0,0-1-.24,1.09,1.09,0,0,0-.77.53,7.9,7.9,0,0,0-.46.93,6.91,6.91,0,0,1-.49.92,11.17,11.17,0,0,1-.77,1c-.42.51-.66.81-.72.91a1.26,1.26,0,0,0-.2,1A1.29,1.29,0,0,0,45.38,51.16Z"/><path class="cls-2" d="M57.42,35.18a.91.91,0,0,0,.73-.26,2.74,2.74,0,0,0,.25-.34,2,2,0,0,1,.25-.36c.22-.23.62-.07,1.2.49l3.58,3.46c.59.57.77,1,.55,1.2a3,3,0,0,1-.34.25,1.87,1.87,0,0,0-.36.26.87.87,0,0,0-.24.75,1.25,1.25,0,0,0,.41.78,1.32,1.32,0,0,0,.93.41,1.16,1.16,0,0,0,.9-.39l.06-.06a.25.25,0,0,1,0-.06l.87-1.06c.25-.31.59-.68,1-1.12L68.36,38c1.35-1.36,2.36-2.34,3-2.92.39-.36.66-.62.82-.78.49-.51.54-1,.13-1.35a3.79,3.79,0,0,0-.54-.45,6.48,6.48,0,0,1-.62-.47c-.1-.1-.34-.37-.71-.82a9.52,9.52,0,0,0-.68-.72,1.21,1.21,0,0,0-1.94-.06,1.36,1.36,0,0,0-.44,1,1.39,1.39,0,0,0,.49,1,3.2,3.2,0,0,0,.45.36,4.47,4.47,0,0,1,.47.38A.71.71,0,0,1,69,34a4.47,4.47,0,0,1-1,1.3l-.72.75a1.19,1.19,0,0,1-.74.44,1.21,1.21,0,0,1-.78-.43l-1-.94c-.28-.26-.3-.52-.07-.76s.63-.44.84-.24l.31.3.06.06a.8.8,0,0,0,1.28,0c.45-.46.41-.93-.1-1.42-.13-.13-.39-.35-.77-.65s-.68-.56-.9-.77a7.71,7.71,0,0,1-.73-.83,3.26,3.26,0,0,0-.36-.43.83.83,0,0,0-1.32.05q-.63.64-.09,1.17l.2.19.17.16c.27.27.23.59-.13,1-.15.16-.28.22-.39.19a1,1,0,0,1-.38-.27l-.73-.7q-.41-.38-.33-.69a2,2,0,0,1,.47-.64l1.24-1.28a3.9,3.9,0,0,1,.55-.52.45.45,0,0,1,.64,0,3.77,3.77,0,0,1,.38.48,3.87,3.87,0,0,0,.41.51A1.2,1.2,0,0,0,67,30,1.32,1.32,0,0,0,67.4,29a1.14,1.14,0,0,0-.36-.89,5.71,5.71,0,0,0-.63-.5,7.5,7.5,0,0,1-.65-.51,6.43,6.43,0,0,1-.55-.64,5.73,5.73,0,0,0-.55-.65c-.42-.41-.87-.37-1.34.11s-.75.81-1.09,1.21c-.2.24-.63.72-1.3,1.45l-1.46,1.59c-.61.64-1.27,1.26-2,1.89-.47.41-.78.7-.92.84a1.16,1.16,0,0,0,0,1.86A1.23,1.23,0,0,0,57.42,35.18Z"/><path class="cls-2" d="M76.42,18.13a.84.84,0,0,0,.77-.05,2.23,2.23,0,0,0,.34-.28,2,2,0,0,1,.34-.27c.28-.16.62.11,1,.8l2.51,4.3c.42.7.48,1.13.2,1.3a2,2,0,0,1-.39.16,2.07,2.07,0,0,0-.42.16.87.87,0,0,0-.42.65,1.27,1.27,0,0,0,.19.87,1.33,1.33,0,0,0,.78.65,1.29,1.29,0,0,0,1-.16l.13-.07c.2-.13.53-.35,1-.68s.8-.57,1-.72.66-.37,1-.52l1.15-.57c.46-.23.89-.46,1.3-.7a5.55,5.55,0,0,0,2.49-2.55,3.15,3.15,0,0,0-.28-2.92,2.94,2.94,0,0,0-3.38-1.42l-.48.07a2.45,2.45,0,0,0,.65-3.28,2.66,2.66,0,0,0-1.37-1.17,2.83,2.83,0,0,0-1.84-.08,8,8,0,0,0-2,.87c-.45.26-.79.48-1,.64l-1,.72c-.23.16-.54.36-1,.6s-.94.53-1.26.68l-1.17.53a.1.1,0,0,1-.07,0l-.06,0a1.26,1.26,0,0,0-.62.79,1.39,1.39,0,0,0,.19,1A1.25,1.25,0,0,0,76.42,18.13Zm9.54.31a1.36,1.36,0,0,1,1.18.69,1.27,1.27,0,0,1,.1,1.15,2,2,0,0,1-.91,1,2.79,2.79,0,0,1-1.37.5,1,1,0,0,1-.82-.61L83.47,20a.58.58,0,0,1-.11-.44c0-.11.16-.23.39-.37l.47-.27A3,3,0,0,1,86,18.44Zm-4.71-3a2.59,2.59,0,0,1,.75-.56c1.07-.64,1.82-.6,2.22.1a1,1,0,0,1,0,1.07,2.83,2.83,0,0,1-1.11,1.05l-.48.28a.93.93,0,0,1-.42.17c-.12,0-.24-.11-.36-.32l-.54-.92A.78.78,0,0,1,81.25,15.47Z"/><path class="cls-2" d="M96.08,17.31a5.38,5.38,0,0,0,4.53.12,5.26,5.26,0,0,0,3.34-3,7,7,0,0,0-.22-5,6.42,6.42,0,0,0-3-3.78,5.55,5.55,0,0,0-4.57-.09,5.17,5.17,0,0,0-3.27,3,6.77,6.77,0,0,0,.17,4.85A6.72,6.72,0,0,0,96.08,17.31Zm1.07-9.39a1.86,1.86,0,0,1,2,.27,6,6,0,0,1,1.53,2.61c.84,2.33.54,3.75-.92,4.28a2,2,0,0,1-2.13-.4,6.15,6.15,0,0,1-1.34-2.38Q94.95,8.72,97.15,7.92Z"/><path class="cls-2" d="M107.91,4.8l.3,0,.25,0c.38-.07.82.17,1.33.72L112,7.84l-1.38,2.8-.28.5a5.16,5.16,0,0,1-.34.54.56.56,0,0,1-.28.13l-.34,0-.36,0c-.62.1-.86.53-.74,1.29a1.37,1.37,0,0,0,.52.9,1.22,1.22,0,0,0,1,.22,6.8,6.8,0,0,0,.92-.28,4.33,4.33,0,0,1,.86-.22c.25,0,.53-.07.86-.09l1.26-.06c.73-.12,1-.57.89-1.35a.89.89,0,0,0-.5-.74l-.37-.15a.34.34,0,0,1-.21-.23,1.81,1.81,0,0,1,.24-.78l.77-1.73,1.3,1.58a1.62,1.62,0,0,1,.3.47.42.42,0,0,1-.2.34,1.83,1.83,0,0,0-.47.49,1.06,1.06,0,0,0,0,.61,1.3,1.3,0,0,0,.4.8.89.89,0,0,0,.77.21c.07,0,.38-.11.93-.28a8,8,0,0,1,1.13-.24,7.44,7.44,0,0,1,1.06-.12c.52,0,.83,0,.94,0a1.19,1.19,0,0,0,.84-.53,1.4,1.4,0,0,0,.2-1c-.13-.76-.5-1.09-1.11-1l-.16,0a.83.83,0,0,1-.18,0,1.26,1.26,0,0,1-.31.09.73.73,0,0,1-.45-.09l-.33-.35-.39-.37L116.52,6.8l1.37-2.75c.35-.7.65-1.07.93-1.11h.31l.12,0,.11,0a.88.88,0,0,0,.64-.43,1.3,1.3,0,0,0,.13-.86,1.45,1.45,0,0,0-.5-.91,1.07,1.07,0,0,0-.88-.25,6.63,6.63,0,0,0-.91.24,8,8,0,0,1-.92.25,9.43,9.43,0,0,1-1,.07,6.87,6.87,0,0,0-1,.07,1,1,0,0,0-.74.48,1.37,1.37,0,0,0-.15,1,1,1,0,0,0,.68.76c.16.07.26.16.28.27a1.68,1.68,0,0,1-.2.7L114.08,6l-1.14-1.47A1.59,1.59,0,0,1,112.6,4a.37.37,0,0,1,.17-.34l.25-.23a.78.78,0,0,0,.19-.74,1.28,1.28,0,0,0-.46-.84,1,1,0,0,0-.87-.21,7,7,0,0,0-1,.25,7.37,7.37,0,0,1-1,.25q-.24,0-1.41.09a5.26,5.26,0,0,0-.63.07,1.31,1.31,0,0,0-.92.54,1.32,1.32,0,0,0-.22,1C106.88,4.58,107.26,4.9,107.91,4.8Z"/><path class="cls-2" d="M125.63,2.54a1.7,1.7,0,0,0,.44-.07,2.26,2.26,0,0,1,.43-.06c.24,0,.39.15.45.46a3.82,3.82,0,0,1,0,.74l0,5a5.86,5.86,0,0,1,0,.76c-.06.31-.21.47-.45.47a2.08,2.08,0,0,1-.42-.06,2.26,2.26,0,0,0-.43-.06.85.85,0,0,0-.7.34,1.27,1.27,0,0,0-.28.86,1.34,1.34,0,0,0,.37,1,1.22,1.22,0,0,0,.94.35c.21,0,.68,0,1.38-.12A14.36,14.36,0,0,1,129.1,12a7.24,7.24,0,0,1,1,0l1.13.14.16,0a1.21,1.21,0,0,0,.89-.39,1.31,1.31,0,0,0,.34-.95,1.28,1.28,0,0,0-.28-.85.86.86,0,0,0-.7-.33,2.36,2.36,0,0,0-.43.06,2.47,2.47,0,0,1-.43.07c-.32,0-.49-.41-.49-1.22l0-5c0-.81.15-1.21.48-1.21a2.36,2.36,0,0,1,.43.06,2.26,2.26,0,0,0,.43.06.84.84,0,0,0,.69-.35,1.22,1.22,0,0,0,.27-.85A1.15,1.15,0,0,0,131.19,0c-.2,0-.62,0-1.25.1s-1.11.1-1.44.1-.86,0-1.3-.06c-.66-.07-1.08-.1-1.26-.1A1.24,1.24,0,0,0,125,.4a1.3,1.3,0,0,0-.35,1,1.29,1.29,0,0,0,.29.84A.86.86,0,0,0,125.63,2.54Z"/><path class="cls-2" d="M136.92,12.29a9.9,9.9,0,0,0,1,.08c.52,0,.94.07,1.25.12a8.22,8.22,0,0,1,1.09.26,11.19,11.19,0,0,0,1.15.3A1.14,1.14,0,0,0,142.88,12a1.3,1.3,0,0,0-.12-.88.77.77,0,0,0-.57-.44h-.78c-.31-.05-.4-.48-.26-1.29l.9-5.35,2.11,8.39a3,3,0,0,0,.28.83,1,1,0,0,0,.72.38l.39.07.88.09.53.12.54.11c.64.11,1-.23,1.15-1l1.21-7.22c.07-.37.12-.62.16-.74q.18-.42.54-.36a1.78,1.78,0,0,1,.4.13,2.28,2.28,0,0,0,.41.13.89.89,0,0,0,.75-.22,1.2,1.2,0,0,0,.42-.78,1.28,1.28,0,0,0-.19-1,1.26,1.26,0,0,0-.87-.51c-.15,0-.55-.06-1.2-.1a10.3,10.3,0,0,1-1.13-.11,9.22,9.22,0,0,1-1.21-.3c-.45-.13-.77-.22-1-.25a1.2,1.2,0,0,0-.95.21,1.31,1.31,0,0,0-.49.88,1.3,1.3,0,0,0,.12.88.77.77,0,0,0,.57.44,2.23,2.23,0,0,0,.37,0,1.18,1.18,0,0,1,.38,0c.3.05.39.47.26,1.26l-.88,5.25-1.85-8.11a4.5,4.5,0,0,0-.26-.88.85.85,0,0,0-.68-.5,2.56,2.56,0,0,0-.47,0L142.24,1,141.08.85A11.17,11.17,0,0,1,140,.57,8.64,8.64,0,0,0,138.91.3a1.25,1.25,0,0,0-1,.2,1.31,1.31,0,0,0-.52.88,1.31,1.31,0,0,0,.14.88.86.86,0,0,0,.62.45,2.09,2.09,0,0,0,.45,0,1.88,1.88,0,0,1,.43,0c.32,0,.41.48.28,1.27l-.83,4.91c-.13.81-.36,1.18-.68,1.13a2.52,2.52,0,0,1-.4-.13,1.9,1.9,0,0,0-.43-.14.89.89,0,0,0-.74.22,1.29,1.29,0,0,0-.41.79A1.15,1.15,0,0,0,136.92,12.29Z"/><path class="cls-2" d="M155.73,15.89a5,5,0,0,0,2.19,1.6,4.39,4.39,0,0,0,3,.07l0,.1c-.21.55.08,1,.87,1.27s1.38.09,1.67-.67c.08-.22.17-.47.25-.72l.24-.74q.12-.36.24-.69c.19-.5.44-.7.74-.59l.41.15a.74.74,0,0,0,.71-.1,1.37,1.37,0,0,0,.54-.71,1.33,1.33,0,0,0,0-1,1.29,1.29,0,0,0-.75-.65A6.44,6.44,0,0,0,165,13a11.77,11.77,0,0,1-1.27-.36,11.38,11.38,0,0,1-1.05-.51,10.28,10.28,0,0,0-1-.49,1.31,1.31,0,0,0-1,0,1.11,1.11,0,0,0-.64.68,1.2,1.2,0,0,0,0,.83.72.72,0,0,0,.46.5l.31.09.13,0,.1,0c.39.15.5.46.32.93a1.29,1.29,0,0,1-.79.79,1.72,1.72,0,0,1-1.22,0A2,2,0,0,1,158,14a4.78,4.78,0,0,1,.35-2.68,6.2,6.2,0,0,1,1.68-2.67,2,2,0,0,1,2.08-.38,1.85,1.85,0,0,1,1.07.82,2.73,2.73,0,0,1,.08,1.54,1.16,1.16,0,0,0,.82,1.4,1.7,1.7,0,0,0,1.1.08.94.94,0,0,0,.66-.59s.09-.25.2-.62a2.24,2.24,0,0,1,.13-.46c.07-.18.24-.51.49-1a6.86,6.86,0,0,0,.32-.65,1,1,0,0,0-.66-1.4A1,1,0,0,0,165,8a4.24,4.24,0,0,0-2.5-2.3,4.6,4.6,0,0,0-4.19.3,7.47,7.47,0,0,0-3,4,8.08,8.08,0,0,0-.55,3.5A4.45,4.45,0,0,0,155.73,15.89Z"/><path class="cls-2" d="M177.94,28.11a5.47,5.47,0,0,0,3.49,1.14,3.42,3.42,0,0,0,2.72-1.5,2,2,0,0,0,.43-1.37,1.47,1.47,0,0,0-.68-1.1,1.35,1.35,0,0,0-1-.28,1.09,1.09,0,0,0-.81.53l-.38.53a1.06,1.06,0,0,1-.95.5,2.1,2.1,0,0,1-1.27-.45,2,2,0,0,1-1-1.81,5.51,5.51,0,0,1,1.19-2.7c1.47-2.07,2.85-2.65,4.16-1.72a2,2,0,0,1,.82,1.05,1.15,1.15,0,0,1-.18,1.08l-.32.45c-.46.61-.31,1.17.43,1.7a1.58,1.58,0,0,0,1.06.33,1.14,1.14,0,0,0,.85-.5c.09-.13.2-.33.35-.61a5.74,5.74,0,0,1,.35-.6c.12-.17.35-.45.67-.82a5.7,5.7,0,0,0,.44-.53,1.12,1.12,0,0,0,.21-.85,1.13,1.13,0,0,0-.48-.73.93.93,0,0,0-1.47.2l-.1.15a4.13,4.13,0,0,0-1.71-2.76,4.51,4.51,0,0,0-4-.75,7.39,7.39,0,0,0-3.82,3,6.5,6.5,0,0,0-1.4,4.61A5.32,5.32,0,0,0,177.94,28.11Z"/><path class="cls-2" d="M188.64,31.77c-.58.58-1,.75-1.21.52a1.78,1.78,0,0,1-.25-.35,2.16,2.16,0,0,0-.25-.35.91.91,0,0,0-.73-.27,1.37,1.37,0,0,0-.81.41,1.33,1.33,0,0,0-.42.92,1.2,1.2,0,0,0,.38.92l.06.06.06,0,1.1.91c.19.16.47.42.84.8q2.29,2.29,3.45,3.6c.51.57.9,1,1.18,1.28.55.56,1.06.6,1.53.13,0,0,.21-.25.5-.64a6.17,6.17,0,0,1,.48-.54c.14-.14.38-.34.7-.6A6.72,6.72,0,0,0,196,38a1.26,1.26,0,0,0,0-2,1.59,1.59,0,0,0-1-.49,1.25,1.25,0,0,0-1,.38,3.21,3.21,0,0,0-.44.56,2.61,2.61,0,0,1-.35.45c-.43.43-1,.3-1.67-.39l-.62-.62a4.4,4.4,0,0,1-.42-.48.68.68,0,0,1-.05-.81,4.29,4.29,0,0,1,.58-.66l3.59-3.59c.47-.46.84-.56,1.11-.29a3.77,3.77,0,0,1,.35.45,4.52,4.52,0,0,0,.36.44.8.8,0,0,0,.72.24,1.37,1.37,0,0,0,.81-.41,1.33,1.33,0,0,0,.42-.92,1.29,1.29,0,0,0-.42-.92c-.18-.17-.5-.44-1-.8-.3-.24-.59-.49-.88-.77s-.68-.72-1.05-1.16q-.84-1-1-1.17a1.17,1.17,0,0,0-1.87,0,1.31,1.31,0,0,0-.4.79.87.87,0,0,0,.25.73,2.08,2.08,0,0,0,.36.27,2,2,0,0,1,.34.25q.35.35-.51,1.2Z"/><path class="cls-2" d="M197.49,44.87q-.6,1.91,1.06,4.36a5.64,5.64,0,0,0,3.65,2.71,3.57,3.57,0,0,0,2.26-.46c.23-.12.91-.56,2-1.31l.46-.31,1.3-.88.66-.44c.56-.38.94-.43,1.14-.14,0,.07.1.19.17.35s.14.28.19.36a.91.91,0,0,0,.68.42,1.32,1.32,0,0,0,1.21-2.1c-.15-.22-.4-.53-.74-.94a10.31,10.31,0,0,1-.74-.93,8.26,8.26,0,0,1-.51-.91,8.58,8.58,0,0,0-.5-.91,1.15,1.15,0,0,0-.79-.52,1.33,1.33,0,0,0-1,.26c-.61.41-.78.82-.5,1.22l.1.15.12.18a.32.32,0,0,1,0,.37,2.73,2.73,0,0,1-.65.52l-3.4,2.3a2.62,2.62,0,0,1-1.7.59,1.8,1.8,0,0,1-1.25-.92,1.72,1.72,0,0,1-.38-1.47,2.78,2.78,0,0,1,1.21-1.33l3.41-2.3.52-.35q.34-.16.51.09l.13.19.1.15c.28.41.71.41,1.31,0a1.36,1.36,0,0,0,.62-.81,1.1,1.1,0,0,0-.18-.92,7.77,7.77,0,0,0-.65-.79,8.91,8.91,0,0,1-.64-.79c-.15-.22-.34-.57-.59-1a9.9,9.9,0,0,0-.59-1,1.4,1.4,0,0,0-.87-.64,1.38,1.38,0,0,0-1.55.92.85.85,0,0,0,.11.76,2.24,2.24,0,0,0,.28.33l.26.3c.19.29,0,.62-.51,1l-.58.39-1.64,1.06-1.68,1.07A4.46,4.46,0,0,0,197.49,44.87Z"/><path class="cls-2" d="M213,56.67l-4.6,1.92c-.75.32-1.19.33-1.31,0a2.42,2.42,0,0,1-.11-.42,2.19,2.19,0,0,0-.11-.43.84.84,0,0,0-.58-.5,1.26,1.26,0,0,0-.89.06,1.36,1.36,0,0,0-.74.69,1.25,1.25,0,0,0,0,1l.06.13a10.71,10.71,0,0,0,.54,1.06,11.9,11.9,0,0,1,.57,1.13c.15.36.28.71.39,1l.41,1.21a14.73,14.73,0,0,0,.52,1.38,5.46,5.46,0,0,0,2.2,2.81,3.13,3.13,0,0,0,2.92.12,3.4,3.4,0,0,0,1.22-.88,3.3,3.3,0,0,0,.64-2.28v-.48a2.45,2.45,0,0,0,3.16,1.07,2.62,2.62,0,0,0,1.34-1.2,2.83,2.83,0,0,0,.33-1.81,8.54,8.54,0,0,0-.59-2.08c-.21-.48-.37-.85-.5-1.1l-.58-1.08a9.28,9.28,0,0,1-.47-1q-.34-.82-.51-1.35L216,54.46s0,0,0-.07l0-.06a1.21,1.21,0,0,0-.7-.72,1.35,1.35,0,0,0-1,0,1.31,1.31,0,0,0-.68.58.87.87,0,0,0,0,.77,1.74,1.74,0,0,0,.23.39,2.92,2.92,0,0,1,.22.36C214.05,56.06,213.74,56.36,213,56.67Zm-1.05,7a1.39,1.39,0,0,1-.85,1.08,1.29,1.29,0,0,1-1.15-.06,2,2,0,0,1-.86-1,2.76,2.76,0,0,1-.31-1.43,1.06,1.06,0,0,1,.72-.73l1.21-.51a.58.58,0,0,1,.45,0c.11,0,.21.19.31.44l.21.49A3.18,3.18,0,0,1,212,63.66Zm2.7-4.32a.76.76,0,0,1,.87,0,2.73,2.73,0,0,1,.46.82c.48,1.15.34,1.88-.4,2.19a1.06,1.06,0,0,1-1.07-.15,2.7,2.7,0,0,1-.88-1.24l-.22-.51a.91.91,0,0,1-.11-.44c0-.12.14-.22.37-.31Z"/><path class="cls-2" d="M43.85,125.09a6.7,6.7,0,0,0-.31-3.39,6.37,6.37,0,0,1-.34-1.63c0-.25.18-.45.49-.62.61-.31,1.15,0,1.6.84s.43,1.64-.15,2.14l-.28.24a1,1,0,0,0-.19,1.42q.54,1,1.44.57l.07,0,.38-.24a2.7,2.7,0,0,1,.39-.23c.15-.08.38-.18.69-.31s.54-.22.7-.3c.55-.29.65-.76.31-1.41a1,1,0,0,0-.54-.56,1.22,1.22,0,0,0-.84.18,3.49,3.49,0,0,0-.22-3.07,3.84,3.84,0,0,0-2.14-2,3.35,3.35,0,0,0-2.77.25,3,3,0,0,0-1.65,2.25,3.93,3.93,0,0,0,0,1.53l.28,1.13a7,7,0,0,1,.31,1.88,1,1,0,0,1-.58.73,1.08,1.08,0,0,1-1,0,1.8,1.8,0,0,1-.84-.86q-.83-1.58.24-2.34a1.92,1.92,0,0,0,.75-.85,1.3,1.3,0,0,0-.18-1,1.51,1.51,0,0,0-.69-.72.88.88,0,0,0-.82,0c-.11.06-.28.16-.5.31l-.5.31a7,7,0,0,1-.78.33,5.22,5.22,0,0,0-.71.31,1,1,0,0,0-.46,1.5.91.91,0,0,0,1.33.47,4.72,4.72,0,0,0,.38,3.12,4.26,4.26,0,0,0,2.38,2.17,3.68,3.68,0,0,0,3.08-.26A3,3,0,0,0,43.85,125.09Z"/><path class="cls-2" d="M56.74,136a4.29,4.29,0,0,0-1-3.07c-.07-.1-.38-.45-.94-1.06s-.8-1-1.13-1.41q-.26-.35-.69-1.08c-.29-.48-.52-.84-.68-1.06a.07.07,0,0,1,0-.06l0,0a1.17,1.17,0,0,0-.82-.51,1.37,1.37,0,0,0-1.43,1,.82.82,0,0,0,.13.73,2.08,2.08,0,0,0,.3.3,1.94,1.94,0,0,1,.29.29c.14.18.1.39-.1.61a4.16,4.16,0,0,1-.55.45l-3.82,2.85c-.63.46-1,.57-1.22.32a1.94,1.94,0,0,1-.19-.35,2.36,2.36,0,0,0-.21-.38.78.78,0,0,0-.66-.34,1.39,1.39,0,0,0-1.33,1.08,1.19,1.19,0,0,0,.25.92l.3.35.58.63q.33.36.78,1,.29.39.78,1.2c.33.54.59.94.78,1.19A1.22,1.22,0,0,0,47,140a1.42,1.42,0,0,0,1.45-1,.87.87,0,0,0-.16-.74,3.57,3.57,0,0,0-.44-.47,3.71,3.71,0,0,1-.35-.38.49.49,0,0,1,.15-.76l.44-.32c.28-.21.5-.18.68.07l.29.39.39.52a4.73,4.73,0,0,0,2.79,2A4,4,0,0,0,56.74,136Zm-3.53.09c-.93.69-1.76.46-2.51-.67l-.16-.22c-.14-.21-.2-.36-.17-.46s.17-.23.43-.42l1.24-.93a2.68,2.68,0,0,1,.44-.28.5.5,0,0,1,.56,0,2.77,2.77,0,0,1,.41.47A1.55,1.55,0,0,1,53.21,136.06Z"/><path class="cls-2" d="M65.12,143a5,5,0,0,0-3.94-1.56A7.69,7.69,0,0,0,55,147.86a5.21,5.21,0,0,0,1.82,3.94,5.06,5.06,0,0,0,4,1.59A6.67,6.67,0,0,0,65,151.1a6.14,6.14,0,0,0,2-4.17A5.32,5.32,0,0,0,65.12,143Zm-1,3.62A5.94,5.94,0,0,1,62.54,149q-2.46,2.55-4.06,1a1.84,1.84,0,0,1-.56-2,5.87,5.87,0,0,1,1.47-2.16q2.53-2.62,4.14-1.08A1.78,1.78,0,0,1,64.13,146.6Z"/><path class="cls-2" d="M78.65,154.05c-.28-.19-.71-.45-1.31-.8-.9-.51-1.63-1-2.19-1.34-.32-.22-.62-.44-.88-.66l-1-.78a.44.44,0,0,0-.12-.1,1.14,1.14,0,0,0-.92-.19,1.27,1.27,0,0,0-.79.57,1.2,1.2,0,0,0-.23.82.84.84,0,0,0,.37.64,1.88,1.88,0,0,0,.38.19,1.9,1.9,0,0,1,.37.17c.19.13.22.33.1.61a5,5,0,0,1-.36.61l-2.67,4c-.44.65-.79.88-1,.71a2.72,2.72,0,0,1-.3-.27,1.53,1.53,0,0,0-.32-.29.81.81,0,0,0-.73-.1,1.22,1.22,0,0,0-.68.52,1.11,1.11,0,0,0,.34,1.74,12.11,12.11,0,0,0,1.06.62,10.64,10.64,0,0,1,1.11.64,10.85,10.85,0,0,1,1,.75,9.35,9.35,0,0,0,.88.7,1.08,1.08,0,0,0,1.7-.37,1.31,1.31,0,0,0,.25-.81.77.77,0,0,0-.33-.61,1.63,1.63,0,0,0-.35-.17,2.47,2.47,0,0,1-.34-.15c-.24-.17-.14-.57.3-1.21l.22-.33a1.5,1.5,0,0,1,.43-.48c.16-.1.37-.06.64.12A2.8,2.8,0,0,1,74.42,160a1.46,1.46,0,0,1-.32,1.28l-.06.1-.56.83a.13.13,0,0,0-.11.07,2.34,2.34,0,0,0-.46,1.36,1.23,1.23,0,0,0,.56,1,5.44,5.44,0,0,0,.53.31c.24.12.41.23.53.3a4.87,4.87,0,0,1,.46.37c.2.17.36.29.46.36a1.21,1.21,0,0,0,.92.22,1.24,1.24,0,0,0,.79-.56,1.4,1.4,0,0,0,.27-.82.71.71,0,0,0-.32-.61l-.29-.14a1.43,1.43,0,0,1-.28-.14q-.35-.22.06-.81l.11-.18.34-.5a2.16,2.16,0,0,0,.45-1.58,3.2,3.2,0,0,0-1-1.59,4.41,4.41,0,0,0,1.63.39,2.1,2.1,0,0,0,1.8-1.07,2.78,2.78,0,0,0,.46-2.38A3.86,3.86,0,0,0,78.65,154.05Zm-1.67,3c-.5.74-1.36.69-2.6-.14a.76.76,0,0,1-.34-.38c0-.11,0-.28.18-.5l.59-.86a.73.73,0,0,1,.73-.41,2.89,2.89,0,0,1,.79.43C77.2,155.83,77.42,156.45,77,157.1Z"/><path class="cls-2" d="M95.51,162.88l-.92-.36q-1.31-.47-3.6-1.5c-1.51-.68-2.67-1.26-3.48-1.71-.35-.2-.65-.35-.89-.46a.68.68,0,0,0-1,.37c-.07.16-.15.38-.24.65s-.23.67-.28.8-.24.47-.39.73a6.46,6.46,0,0,0-.4.71,1.53,1.53,0,0,0-.12,1.09,1.2,1.2,0,0,0,.71.74c.78.36,1.38.07,1.81-.86a4.32,4.32,0,0,0,.16-.5,3.52,3.52,0,0,1,.16-.51c.16-.35.5-.41,1-.18s.61.7.29,1.4l-2,4.51c-.29.65-.61.89-1,.73a3.1,3.1,0,0,1-.48-.28,4.59,4.59,0,0,0-.49-.29,1,1,0,0,0-1.42.6,1.13,1.13,0,0,0,.65,1.68c.32.14.69.28,1.11.43a15.36,15.36,0,0,1,1.66.64,16.36,16.36,0,0,1,1.57.82c.4.23.75.42,1.06.56a1.17,1.17,0,0,0,1.73-.71.91.91,0,0,0-.51-1.37,3.72,3.72,0,0,0-.53-.17,4.74,4.74,0,0,1-.54-.18c-.36-.16-.39-.56-.09-1.21l2-4.52a1.57,1.57,0,0,1,.56-.73.85.85,0,0,1,.75.06c.46.21.61.5.44.87a4.28,4.28,0,0,1-.26.45,5,5,0,0,0-.28.48q-.61,1.35.57,1.89a1.23,1.23,0,0,0,1,0,1.46,1.46,0,0,0,.74-.8c0-.06.12-.32.28-.78a7,7,0,0,1,.3-.77,5.69,5.69,0,0,1,.37-.67c.17-.3.3-.52.37-.68A.68.68,0,0,0,95.51,162.88Z"/><path class="cls-2" d="M118.56,171.75a3.54,3.54,0,0,0-3,1,7.94,7.94,0,0,0-.86,1.13l-.19.29-.81-1.54a8.44,8.44,0,0,0,1.27-.66,2.35,2.35,0,0,0,1.11-1.63,2.11,2.11,0,0,0-.56-1.83,3.36,3.36,0,0,0-2-1,3.46,3.46,0,0,0-2.34.33,2.25,2.25,0,0,0-1.13,1.66,3.91,3.91,0,0,0,.41,2.14l-.37.11c-.69.24-1.19.44-1.5.58a3.21,3.21,0,0,0-1.92,2.54,3.46,3.46,0,0,0,.77,2.84,4.28,4.28,0,0,0,2.79,1.54,4.59,4.59,0,0,0,2-.09,3.33,3.33,0,0,0,1.55-.9l.33.54a5.26,5.26,0,0,0,.41.63,1.06,1.06,0,0,0,.62.35l.52,0a4.93,4.93,0,0,1,.78.06c.13,0,.33.08.57.16a4.16,4.16,0,0,0,.58.15.82.82,0,0,0,.69-.19,1.1,1.1,0,0,0,.38-.71c.12-.79-.29-1.27-1.26-1.43a1.78,1.78,0,0,1-1-.48,4.27,4.27,0,0,1-.65-1,1,1,0,0,1-.12-.23,19.85,19.85,0,0,1,1.28-1.7,1.39,1.39,0,0,1,1.21-.64c.13,0,.18.07.17.13a.45.45,0,0,1,0,.13l-.13.12a.8.8,0,0,0-.22.44,1.08,1.08,0,0,0,.26.88,1.36,1.36,0,0,0,.86.48,1.61,1.61,0,0,0,1.3-.33,1.83,1.83,0,0,0,.71-1.2,2.08,2.08,0,0,0-.52-1.74A2.79,2.79,0,0,0,118.56,171.75ZM111.74,177a1.88,1.88,0,0,1-.9,0,1.65,1.65,0,0,1-1.09-.59,1.4,1.4,0,0,1-.28-1.13,1.57,1.57,0,0,1,.44-.93,6,6,0,0,1,1.36-.8l1.38,2.81A3.48,3.48,0,0,1,111.74,177Zm1.08-6a1.87,1.87,0,0,1-.31-1.17.58.58,0,0,1,.75-.56.68.68,0,0,1,.46.28.77.77,0,0,1,.11.54A1.09,1.09,0,0,1,112.82,171Z"/><path class="cls-2" d="M145.37,171a5,5,0,0,1-.18-.79,4.17,4.17,0,0,1,0-.93,3.12,3.12,0,0,0,0-.69c-.05-.5-.37-.72-.94-.66l-.17,0-1,.2c-.56.09-1,.15-1.42.2l-1.92.25-1.3.16c-.56.07-1.28.11-2.17.15A12.07,12.07,0,0,0,135,169a1.13,1.13,0,0,0-1.13,1.4,1.29,1.29,0,0,0,.36.78.81.81,0,0,0,.69.26,2.88,2.88,0,0,0,.41-.11,2.28,2.28,0,0,1,.4-.11c.23,0,.39.11.48.4a4.81,4.81,0,0,1,.11.7l.54,4.73a7.3,7.3,0,0,1,.05.73c0,.3-.15.46-.38.49a2.07,2.07,0,0,1-.4,0,2.07,2.07,0,0,0-.42,0,.85.85,0,0,0-.64.39,1.41,1.41,0,0,0,.26,1.71,1.17,1.17,0,0,0,.92.25l1.31-.27q.49-.1,1.38-.21c.29,0,.74,0,1.33-.06s1,0,1.34-.07a1.29,1.29,0,0,0,.89-.44,1.16,1.16,0,0,0,.25-.92c-.09-.77-.47-1.12-1.15-1.05a4.86,4.86,0,0,0-.54.13l-.54.12a.42.42,0,0,1-.5-.24,1.29,1.29,0,0,1-.1-.42l-.07-.58-.11-1c0-.19,0-.32.05-.38s.19-.11.4-.13c.43-.05.66.07.69.35l0,.19a.22.22,0,0,1,0,.09.87.87,0,0,0,0,.1c.07.64.4.92,1,.85s.85-.45.77-1.14c0-.23-.09-.57-.18-1s-.16-.8-.19-1c-.05-.39-.07-.72-.08-1s0-.44,0-.56c-.07-.59-.41-.85-1-.78s-.77.31-.72.76a.71.71,0,0,1,0,.12c0,.05,0,.1,0,.13,0,.19,0,.3,0,.33,0,.33-.18.52-.64.57-.3,0-.47-.12-.51-.47l-.09-.81c-.06-.48,0-.78.08-.9a1.43,1.43,0,0,1,.83-.26l1.86-.21c.57-.06.88.1.92.48a3,3,0,0,1,0,.54c0,.31,0,.52,0,.65a1.5,1.5,0,0,0,.45,1,1.16,1.16,0,0,0,1,.26,1.22,1.22,0,0,0,.9-.48,1.37,1.37,0,0,0,.25-1A5.63,5.63,0,0,0,145.37,171Z"/><path class="cls-2" d="M158.71,174.35a.81.81,0,0,0-.73-.15,2,2,0,0,0-.38.16,2.55,2.55,0,0,1-.39.17c-.29.08-.55-.26-.74-1l-1.22-4.61q-.3-1.11.15-1.23a2.66,2.66,0,0,1,.42,0,2.79,2.79,0,0,0,.41,0,.83.83,0,0,0,.56-.49,1.17,1.17,0,0,0,.05-.85,1.1,1.1,0,0,0-1.53-.89c-.19.05-.57.18-1.14.38s-1,.36-1.32.44a10.77,10.77,0,0,1-1.21.25c-.63.1-1,.16-1.19.21a1.24,1.24,0,0,0-.79.55,1.25,1.25,0,0,0-.09,1,1.23,1.23,0,0,0,.46.71.81.81,0,0,0,.73.15,2.48,2.48,0,0,0,.39-.16,2.16,2.16,0,0,1,.38-.17c.22-.05.39.05.53.33a3.84,3.84,0,0,1,.21.67l1.22,4.61a5.72,5.72,0,0,1,.15.71q0,.45-.3.54a2.67,2.67,0,0,1-.41,0,1.93,1.93,0,0,0-.41,0,.82.82,0,0,0-.57.49,1.19,1.19,0,0,0,0,.86,1.27,1.27,0,0,0,.57.8,1.24,1.24,0,0,0,.95.11c.2-.06.62-.21,1.25-.45a15.25,15.25,0,0,1,1.54-.5,7.3,7.3,0,0,1,.9-.19l1.08-.14.16,0a1.14,1.14,0,0,0,.73-.57,1.29,1.29,0,0,0,.09-1A1.23,1.23,0,0,0,158.71,174.35Z"/><path class="cls-2" d="M172.26,168.83a4.58,4.58,0,0,0-.5.27,3.09,3.09,0,0,1-.49.28c-.36.15-.67-.1-1-.75l-1.95-4.56a1.44,1.44,0,0,1-.17-.9.84.84,0,0,1,.55-.52c.47-.2.78-.11.94.27a3.31,3.31,0,0,1,.16.5,3.16,3.16,0,0,0,.17.52c.38.91,1,1.2,1.77.86a1.28,1.28,0,0,0,.71-.72,1.45,1.45,0,0,0-.08-1.09l-.39-.73c-.18-.32-.3-.57-.38-.74s-.14-.4-.24-.73a7.24,7.24,0,0,0-.25-.73.68.68,0,0,0-1-.39c-.23.1-.53.25-.89.44-.82.44-2,1-3.53,1.64s-2.74,1.13-3.62,1.42c-.38.13-.7.24-.94.35a.66.66,0,0,0-.4,1,5,5,0,0,0,.31.62c.21.37.35.62.4.74s.19.5.28.78a7,7,0,0,0,.25.77,1.52,1.52,0,0,0,.73.83,1.21,1.21,0,0,0,1,0c.79-.34,1-1,.59-1.92a5.18,5.18,0,0,0-.27-.45c-.12-.2-.21-.36-.26-.46-.15-.36,0-.65.55-.87s.92,0,1.23.72l2,4.56c.28.66.24,1.06-.12,1.21a3.94,3.94,0,0,1-.54.17,4.21,4.21,0,0,0-.54.16,1,1,0,0,0-.52,1.46,1.13,1.13,0,0,0,1.69.65c.31-.14.67-.31,1.06-.53a16,16,0,0,1,3.26-1.4,10.73,10.73,0,0,0,1.12-.4,1.17,1.17,0,0,0,.65-1.76A.91.91,0,0,0,172.26,168.83Z"/><path class="cls-2" d="M186.69,153.55a4.64,4.64,0,0,1-.37-.62c-.1-.28-.06-.48.13-.61a3.21,3.21,0,0,1,.36-.17,2,2,0,0,0,.38-.17.87.87,0,0,0,.38-.65,1.34,1.34,0,0,0-1-1.39,1.17,1.17,0,0,0-.94.21q-.18.12-.9.72a8.85,8.85,0,0,1-1.9,1.25c-.41.2-.68.35-.84.45a1.13,1.13,0,0,0-.52.76,1.23,1.23,0,0,0,.23.94,1.31,1.31,0,0,0,.66.54.73.73,0,0,0,.69-.07,1.62,1.62,0,0,0,.26-.24,1.44,1.44,0,0,1,.26-.25c.24-.16.58.07,1,.71l2.82,4.24-6.6-4.45a5.68,5.68,0,0,0-.76-.45.86.86,0,0,0-.8.1,3.57,3.57,0,0,0-.35.28c-.24.2-.46.37-.65.51-.42.34-.71.56-.89.68a7.94,7.94,0,0,1-1,.53c-.42.21-.72.38-.93.51a1.24,1.24,0,0,0-.55.79,1.36,1.36,0,0,0,.89,1.47.85.85,0,0,0,.73-.09,1.94,1.94,0,0,0,.32-.29,2.72,2.72,0,0,1,.3-.27c.26-.17.6.06,1,.7l2.64,4c.44.65.52,1.06.27,1.23a1.77,1.77,0,0,1-.38.17,2.66,2.66,0,0,0-.38.19.82.82,0,0,0-.37.64,1.22,1.22,0,0,0,.23.82,1.11,1.11,0,0,0,1.74.35c.11-.08.37-.28.75-.61a11.68,11.68,0,0,1,1-.74,8.56,8.56,0,0,1,.93-.53,10.84,10.84,0,0,0,1-.55,1.08,1.08,0,0,0,.3-1.71,1.25,1.25,0,0,0-.65-.54.75.75,0,0,0-.69.07,1.47,1.47,0,0,0-.28.26,1.4,1.4,0,0,1-.27.25c-.25.17-.59-.08-1-.72l-2.88-4.33,7,4.47a2.92,2.92,0,0,0,.74.4,1,1,0,0,0,.75-.21l.31-.21.68-.51.45-.27.45-.27c.52-.34.56-.83.14-1.46Z"/><path class="cls-2" d="M204.92,146.09a6,6,0,0,1-.58-.46c-.1-.1-.32-.37-.66-.8a7.54,7.54,0,0,0-.63-.71,1.16,1.16,0,0,0-1.86-.11,1.26,1.26,0,0,0,0,1.91,2.75,2.75,0,0,0,.42.36,3.66,3.66,0,0,1,.44.38.67.67,0,0,1,.16.79,4.44,4.44,0,0,1-1,1.21l-.71.7a1.1,1.1,0,0,1-.73.4,1.13,1.13,0,0,1-.72-.43l-.9-.92c-.26-.26-.27-.51,0-.73s.61-.41.8-.21l.29.29.06.06a.77.77,0,0,0,1.23,0c.43-.43.41-.88-.06-1.37-.13-.13-.37-.34-.72-.64a10.62,10.62,0,0,1-.85-.76,7.22,7.22,0,0,1-.67-.81,2.48,2.48,0,0,0-.34-.42.79.79,0,0,0-1.26,0c-.41.4-.45.78-.11,1.12l.18.19.16.16c.25.26.21.56-.15.9-.15.15-.27.21-.38.17a1,1,0,0,1-.36-.26l-.67-.68c-.25-.26-.35-.48-.3-.68a1.83,1.83,0,0,1,.47-.6l1.22-1.19a3,3,0,0,1,.54-.48.43.43,0,0,1,.6.05,3.61,3.61,0,0,1,.36.47,3.17,3.17,0,0,0,.38.5,1.14,1.14,0,0,0,1.84,0,1.23,1.23,0,0,0,.42-.88,1.11,1.11,0,0,0-.32-.87,7.17,7.17,0,0,0-.59-.49,5.91,5.91,0,0,1-.61-.51,6.94,6.94,0,0,1-.51-.63,5.55,5.55,0,0,0-.51-.63c-.39-.4-.82-.38-1.28.07s-.74.76-1.07,1.13q-.3.33-1.29,1.35l-1.44,1.49c-.6.58-1.25,1.17-1.94,1.75q-.69.57-.9.78a1.12,1.12,0,0,0,0,1.78,1.25,1.25,0,0,0,.77.39.88.88,0,0,0,.7-.24,1.42,1.42,0,0,0,.25-.32,3.22,3.22,0,0,1,.25-.33c.22-.22.6,0,1.14.5l3.33,3.4c.55.56.71.95.49,1.16a1.61,1.61,0,0,1-.33.23,2.46,2.46,0,0,0-.35.24.85.85,0,0,0-.25.71,1.24,1.24,0,0,0,.37.77,1.27,1.27,0,0,0,.88.41,1.1,1.1,0,0,0,.87-.35l.06-.06,0,0,.87-1c.24-.28.57-.63,1-1l1.09-1.07c1.33-1.27,2.32-2.18,2.95-2.72.39-.33.66-.57.82-.72.48-.48.53-.91.16-1.29A4.32,4.32,0,0,0,204.92,146.09Z"/><path class="cls-2" d="M212.88,132.21a3,3,0,0,0-2.47-.6,6.86,6.86,0,0,0-2.9,1.78,6.35,6.35,0,0,1-1.32,1,.74.74,0,0,1-.77-.17c-.55-.4-.54-1,.05-1.8s1.27-1.11,2-.81l.34.14a1,1,0,0,0,1.36-.45c.46-.63.42-1.15-.13-1.55l-.07-.05a3.07,3.07,0,0,0-.38-.23l-.38-.24c-.14-.1-.33-.27-.58-.49s-.44-.39-.58-.49c-.5-.36-1-.25-1.4.34a1,1,0,0,0-.26.74,1.22,1.22,0,0,0,.52.67,3.48,3.48,0,0,0-2.65,1.55,3.87,3.87,0,0,0-.83,2.8,3.38,3.38,0,0,0,1.45,2.38,3,3,0,0,0,2.75.48,3.66,3.66,0,0,0,1.35-.72l.9-.75a7.6,7.6,0,0,1,1.54-1.11,1,1,0,0,1,.92.2,1.09,1.09,0,0,1,.46.88,1.78,1.78,0,0,1-.4,1.13c-.7,1-1.43,1.23-2.2.82a2,2,0,0,0-1.1-.3,1.31,1.31,0,0,0-.78.59,1.5,1.5,0,0,0-.33.94.87.87,0,0,0,.37.73,5.76,5.76,0,0,0,.49.31c.23.13.4.24.5.31a7.15,7.15,0,0,1,.64.56c.2.19.4.35.59.5a1,1,0,0,0,1.55-.25.92.92,0,0,0-.16-1.41,4.74,4.74,0,0,0,2.63-1.72,4.27,4.27,0,0,0,.89-3.1A3.74,3.74,0,0,0,212.88,132.21Z"/><path class="cls-2" d="M220.37,118.84a3,3,0,0,0-2.53-.22,6.93,6.93,0,0,0-2.6,2.2A6.75,6.75,0,0,1,214.1,122a.78.78,0,0,1-.79-.05c-.61-.32-.69-.92-.23-1.79s1.1-1.3,1.84-1.1l.36.09a1,1,0,0,0,1.27-.66c.36-.69.24-1.19-.36-1.51l-.07,0-.41-.17a3.23,3.23,0,0,1-.42-.18,7.4,7.4,0,0,1-.65-.4c-.28-.18-.49-.31-.64-.39-.55-.29-1-.11-1.34.54a1.08,1.08,0,0,0-.15.77,1.29,1.29,0,0,0,.63.59,3.49,3.49,0,0,0-2.39,1.94,3.84,3.84,0,0,0-.39,2.89,3.36,3.36,0,0,0,1.79,2.13,3,3,0,0,0,2.79,0,3.84,3.84,0,0,0,1.23-.9l.77-.89a7.37,7.37,0,0,1,1.36-1.32,1,1,0,0,1,.93,0,1.14,1.14,0,0,1,.6.8,1.87,1.87,0,0,1-.23,1.18c-.55,1-1.24,1.43-2.06,1.14a2,2,0,0,0-1.12-.13,1.33,1.33,0,0,0-.69.7,1.57,1.57,0,0,0-.19,1,.89.89,0,0,0,.48.67,4.08,4.08,0,0,0,.54.23l.54.23c.17.1.41.25.71.46a7,7,0,0,0,.67.4,1,1,0,0,0,1.49-.48.91.91,0,0,0-.38-1.36,4.75,4.75,0,0,0,2.34-2.1,4.26,4.26,0,0,0,.42-3.2A3.7,3.7,0,0,0,220.37,118.84Z"/><path class="cls-2" d="M81.29,93.9a69.71,69.71,0,0,1,9-4.24V60.8h8.6V52.66H72.68V60.8h8.61Z"/><path class="cls-2" d="M135.88,83.5a6.37,6.37,0,0,0,2.93-5.77V64.82q0-12.16-12-12.16H111.5V84.22A111.31,111.31,0,0,1,127,83.15Q131.53,83.15,135.88,83.5ZM120.48,81V60.8h5.33q4,0,4,4.86V76.14q0,4.86-5.14,4.86Z"/><path class="cls-2" d="M163.22,89.44V64.73q0-3.93,3.56-3.93h1.77q4,0,4,3.93v6.92h9V64.07q0-11.41-10.76-11.41H165q-10.75,0-10.76,11.41V86.56A87.44,87.44,0,0,1,163.22,89.44Z"/><path class="cls-2" d="M86.59,130.3v-1.42q0-2.49-2.34-2.49H83c-1.55,0-2.33.83-2.33,2.49v3a2.89,2.89,0,0,0,.12.92,1.19,1.19,0,0,0,.4.58,5.59,5.59,0,0,0,.88.55l1.84,1a3.47,3.47,0,0,1,.53.37.68.68,0,0,1,.16.54v2.47c0,.57-.26.86-.77.86h-.34a.77.77,0,0,1-.88-.86v-.79H80.71v.73c0,1.79.78,2.68,2.33,2.68h1.2c1.56,0,2.35-.82,2.35-2.45v-3.1a2.45,2.45,0,0,0-.15-1,1.32,1.32,0,0,0-.39-.46,8.84,8.84,0,0,0-.86-.54l-1.85-1a3.27,3.27,0,0,1-.52-.37.69.69,0,0,1-.17-.55V129a.76.76,0,0,1,.84-.87h.3a.76.76,0,0,1,.85.87v1.28Z"/><path class="cls-2" d="M89.73,140.94h1.94v-5.33H93.9v5.33h1.95V128.88c0-1.66-.78-2.49-2.33-2.49H92.06c-1.56,0-2.33.83-2.33,2.49ZM91.67,129a.75.75,0,0,1,.85-.85h.53a.75.75,0,0,1,.85.85v4.85H91.67Z"/><polygon class="cls-2" points="105.17 140.94 105.17 126.39 103.22 126.39 103.22 133.42 101.13 126.39 99.19 126.39 99.19 140.94 101.13 140.94 101.13 131.41 103.22 138.04 103.22 140.94 105.17 140.94"/><path class="cls-2" d="M119.59,138.83v-9.64c0-1.87-.91-2.8-2.73-2.8h-3.39v14.55h3.79C118.82,140.94,119.59,140.24,119.59,138.83Zm-1.94-.3c0,.43-.26.65-.77.65h-1.46v-11h1.36c.58,0,.87.35.87,1.06Z"/><rect class="cls-2" x="122.94" y="126.39" width="1.94" height="14.55"/><polygon class="cls-2" points="133.15 139.18 130.27 139.18 130.27 134.33 132.83 134.33 132.83 132.57 130.27 132.57 130.27 128.15 133.15 128.15 133.15 126.39 128.33 126.39 128.33 140.94 133.15 140.94 133.15 139.18"/><path class="cls-2" d="M142.13,130.5v-1.58a2.21,2.21,0,0,0-2.48-2.53h-1.33q-2.25,0-2.25,2.49v9.61c0,1.63.75,2.45,2.25,2.45h3.81v-7.09h-3v1.76h1v3.57h-1.32c-.56,0-.85-.36-.85-1.06v-8.91c0-.71.29-1.06.85-1.06h.49c.55,0,.83.35.83,1.06v1.29Z"/><path class="cls-2" d="M147.56,126.39c-1.56,0-2.33.83-2.33,2.49v9.59c0,1.64.78,2.47,2.35,2.47h1.82c1.57,0,2.35-.83,2.35-2.47v-9.59c0-1.66-.77-2.49-2.33-2.49Zm2.25,2.61v9.32c0,.57-.26.86-.77.86h-1a.77.77,0,0,1-.87-.86V129a.75.75,0,0,1,.85-.85h.91C149.52,128.15,149.81,128.43,149.81,129Z"/><polygon class="cls-2" points="155.78 143.35 156.76 140.94 156.76 138.43 154.59 138.43 154.59 140.94 155.54 140.94 154.61 143.35 155.78 143.35"/><path class="cls-2" d="M170.58,130.5v-1.64c0-1.65-.78-2.47-2.33-2.47H167c-1.55,0-2.33.82-2.33,2.47v9.61c0,1.64.78,2.47,2.33,2.47h1.26c1.55,0,2.33-.83,2.33-2.47v-.94h-2v.79c0,.57-.26.86-.77.86h-.49c-.51,0-.77-.29-.77-.86V129c0-.57.26-.85.77-.85h.39a.76.76,0,0,1,.87.85v1.5Z"/><path class="cls-2" d="M179.74,140.94V128.88q0-2.49-2.34-2.49H176c-1.56,0-2.33.83-2.33,2.49v12.06h1.94v-5.33h2.23v5.33Zm-4.18-7.09V129a.75.75,0,0,1,.85-.85h.53a.75.75,0,0,1,.85.85v4.85Z"/><path class="cls-2" d="M81.29,118.82h9V88.66a69.71,69.71,0,0,0-9,4.24Z"/><path class="cls-2" d="M139.75,108.81V92q0-5.61-7.39-7.66v-.47a10.56,10.56,0,0,0,3.52-1.34q-4.35-.34-8.87-.35a111.31,111.31,0,0,0-15.51,1.07v35.6h18.05Q139.75,118.82,139.75,108.81Zm-19.27,1.87V88.14h5q5.33,0,5.33,4.77v14.87q0,2.89-3.56,2.9Z"/><path class="cls-2" d="M154.24,107.41q0,11.41,10.76,11.41h5.8q10.75,0,10.76-11.41v-4.3h-9v3.64q0,3.93-3.56,3.93h-2.24q-3.56,0-3.56-3.93V88.44a87.44,87.44,0,0,0-9-2.88Z"/><polygon class="cls-3" points="49.66 85.22 49.66 96.88 58.91 97.97 58.91 84.14 49.66 85.22"/><polygon class="cls-3" points="0 91.05 45.19 96.36 45.19 85.75 0 91.05"/><polygon class="cls-3" points="190.4 82.98 190.4 99.13 198.36 98.19 198.36 83.91 190.4 82.98"/><polygon class="cls-3" points="202.84 84.44 202.84 97.67 210.14 96.81 210.14 85.3 202.84 84.44"/><polygon class="cls-3" points="214.62 85.82 214.62 96.28 259.18 91.05 214.62 85.82"/><polygon class="cls-3" points="71.01 99.09 70.87 82.94 62.91 83.95 63.04 98.23 71.01 99.09"/></g></g></svg>